<svg width="145" height="51" viewBox="0 0 145 51" fill="none" xmlns="http://www.w3.org/2000/svg">
<g clip-path="url(#clip0_65_47)">
<path d="M6.53581 20.2966L28.9407 20.3683L27.6622 26.4628L11.7829 26.4116L10.1924 33.592L22.589 33.633L21.3104 39.7276L8.91387 39.6866L6.5307 50.7849L0.00511169 50.7644L6.54093 20.2914L6.53581 20.2966Z" fill="white"/>
<path d="M30.5618 17.3619L37.0874 17.3824L30.5516 47.8554L24.026 47.8349L30.5618 17.3619Z" fill="white"/>
<path d="M40.7184 14.6629L47.244 14.6834L41.9918 39.0618L56.1272 39.1079L54.8487 45.2025L34.1877 45.1359L40.7236 14.6629H40.7184Z" fill="white"/>
<path d="M61.1493 9.75648L66.3707 9.77185L74.0317 22.8676L87.2516 9.83843L93.7772 9.85892L87.2414 40.3319L80.7158 40.3114L85.0014 20.2863L72.6099 32.4448L65.4298 20.2249L61.1441 40.25L54.6186 40.2295L61.1544 9.75648H61.1493Z" fill="white"/>
<path d="M96.9582 4.56839L119.578 4.64009L118.299 10.7347L102.205 10.6835L100.927 16.563L113.543 16.6039L112.265 22.4834L99.6482 22.4425L98.2367 28.9724L114.765 29.0236L113.487 35.1182L90.4326 35.0465L96.9684 4.57351L96.9582 4.56839Z" fill="white"/>
<path d="M125.459 31.7892C123.224 31.7841 121.332 31.4768 119.787 30.8776C118.238 30.2784 116.97 29.6126 115.988 28.8853C114.832 28.0403 113.906 27.0621 113.216 25.9558L118.32 21.9201C118.78 22.678 119.373 23.349 120.099 23.9277C120.708 24.4245 121.48 24.8752 122.421 25.2849C123.362 25.6946 124.513 25.8995 125.878 25.9046C127.387 25.9046 128.522 25.5717 129.295 24.8905C130.062 24.2094 130.45 23.3899 130.456 22.4322C130.456 21.705 130.149 21.0801 129.525 20.5577C128.906 20.0354 128.129 19.513 127.203 19.0059C126.277 18.4938 125.275 17.9765 124.206 17.449C123.137 16.9215 122.135 16.2966 121.209 15.5643C120.284 14.837 119.511 13.9817 118.887 13.0086C118.269 12.0356 117.957 10.8474 117.962 9.45431C117.962 8.14833 118.238 6.91916 118.78 5.77707C119.322 4.62985 120.084 3.62603 121.076 2.75538C122.063 1.88472 123.25 1.20868 124.625 0.717015C126.001 0.235593 127.546 -0.00511777 129.254 3.73544e-06C131.228 0.00512525 132.89 0.271444 134.255 0.798959C135.616 1.32647 136.746 1.89496 137.641 2.50954C138.653 3.26753 139.507 4.09721 140.198 4.9986L135.14 9.03435C134.736 8.45049 134.23 7.9281 133.621 7.46204C133.099 7.05232 132.45 6.6887 131.668 6.36604C130.885 6.04339 129.959 5.8795 128.885 5.8795C127.494 5.8795 126.472 6.16118 125.817 6.73991C125.162 7.31864 124.835 8.04077 124.83 8.91655C124.83 9.64381 125.137 10.2738 125.761 10.8166C126.38 11.3544 127.157 11.8717 128.083 12.3685C129.008 12.8652 130.005 13.3825 131.079 13.9254C132.148 14.4683 133.151 15.1033 134.076 15.8306C135.002 16.5578 135.774 17.4131 136.398 18.3862C137.017 19.3644 137.329 20.5475 137.324 21.9406C137.324 23.308 137.032 24.5884 136.465 25.7919C135.897 26.9955 135.089 28.0403 134.04 28.9212C132.992 29.8021 131.744 30.5037 130.292 31.021C128.839 31.5383 127.229 31.7943 125.459 31.7892Z" fill="white"/>
<path d="M134.675 5.12152H145L143.389 36.4652H136.291L134.68 5.12152H134.675ZM139.835 51C138.372 51 137.145 50.5032 136.158 49.5148C135.166 48.5263 134.675 47.2972 134.675 45.8324C134.675 44.3677 135.171 43.1385 136.158 42.15C137.145 41.1616 138.372 40.6648 139.835 40.6648C141.297 40.6648 142.525 41.1616 143.512 42.15C144.499 43.1436 144.995 44.3677 144.995 45.8324C144.995 47.2972 144.499 48.5263 143.512 49.5148C142.52 50.5032 141.297 51 139.835 51Z" fill="white"/>
</g>
<defs>
<clipPath id="clip0_65_47">
<rect width="145" height="51" fill="white"/>
</clipPath>
</defs>
</svg>
